<?xml version="1.0" encoding="UTF-8"?>
<svg version="1.1" xmlns="http://www.w3.org/2000/svg"
     width="1366" height="173" viewBox="0 0 1366 173"
     preserveAspectRatio="xMidYMid meet">
  <!-- white background -->
  <rect width="1366" height="173" fill="#ffffff"/>
  <!-- Navy/dark layer -->
  <g transform="translate(0,173) scale(0.1,-0.1)" fill="#18478d" stroke="none">
<path d="M1442 938 c3 -584 4 -623 21 -626 16 -3 17 32 17 622 0 620 0 626
-20 626 -20 0 -20 -5 -18 -622z"/>
<path d="M819 1547 c-5 -25 -4 -33 6 -40 5 -4 -15 -6 -46 -6 -52 2 -61 -1
-104 -36 -44 -37 -47 -41 -41 -77 6 -39 -1 -47 -22 -26 -9 9 -15 9 -24 0 -9
-9 -17 -7 -36 11 l-25 22 5 -28 c4 -22 3 -25 -8 -16 -8 6 -11 16 -7 23 3 6 2
8 -2 3 -5 -4 -17 0 -27 10 -26 24 -31 12 -12 -33 l16 -39 -29 28 c-27 25 -53
35 -53 21 0 -3 5 -15 11 -26 6 -11 13 -33 14 -47 14 -113 22 -141 43 -142 13
0 13 -2 3 -6 -11 -4 -8 -10 10 -24 l24 -18 -45 4 c-43 4 -43 4 -15 -7 44 -16
62 -48 28 -48 -10 0 -14 -4 -8 -8 16 -12 17 -42 1 -42 -8 0 -18 -5 -22 -11 -5
-8 1 -10 19 -5 21 5 26 3 25 -11 -1 -10 2 -28 6 -40 5 -15 3 -23 -4 -23 -6 0
-8 5 -5 10 4 6 -6 10 -22 10 l-28 1 25 14 c27 15 22 18 -25 15 -26 -2 -27 0
-16 14 12 14 9 17 -20 23 -32 6 -33 7 -9 13 21 5 16 8 -24 14 -35 5 -45 10
-35 17 11 7 11 9 -3 9 -10 0 -18 -5 -18 -10 0 -6 -12 -15 -27 -21 l-27 -10 40
-24 c21 -13 45 -25 52 -25 6 0 12 -9 12 -20 0 -13 7 -20 20 -20 11 0 20 -7 20
-15 0 -8 9 -15 19 -15 20 0 35 -25 25 -42 -8 -13 -35 -107 -39 -138 -2 -14 -7
-36 -11 -49 -6 -21 -5 -23 12 -16 10 4 28 9 40 10 11 1 25 5 32 9 7 4 17 4 22
1 6 -4 16 -2 23 3 7 6 29 13 49 17 34 6 40 4 80 -37 24 -24 47 -52 51 -61 4
-10 11 -16 16 -12 6 3 15 -5 22 -17 l12 -22 8 23 c7 17 14 21 29 16 12 -4 20
-2 20 5 0 6 -5 8 -10 5 -6 -4 -13 8 -17 25 -4 22 -8 27 -14 19 -11 -19 -20 -6
-21 30 -1 31 -17 34 -19 3 0 -14 -2 -13 -8 3 -5 11 -7 23 -4 28 2 4 0 7 -6 7
-5 0 -12 -6 -14 -12 -3 -7 -6 -3 -6 8 -1 20 1 21 32 10 17 -6 37 -14 42 -17
12 -8 61 -4 93 6 19 6 22 4 22 -16 1 -21 2 -22 11 -6 5 9 8 21 5 26 -3 5 1 11
9 14 11 5 12 1 6 -16 -8 -20 -5 -22 26 -24 19 -1 40 -7 48 -13 10 -8 14 -8 17
2 3 9 9 8 23 -5 12 -12 20 -15 25 -8 4 8 12 6 26 -4 29 -22 47 -19 38 8 -3 12
-11 24 -17 26 -6 2 -22 16 -36 30 -14 14 -23 22 -19 16 5 -5 8 -16 8 -24 0
-11 -3 -11 -19 3 -10 9 -22 16 -27 15 -19 -3 -44 1 -44 9 1 4 18 19 40 34 21
15 55 51 74 80 35 51 42 51 37 -3 -1 -9 6 -19 15 -23 14 -5 15 -4 4 9 -10 12
-10 15 1 15 10 0 10 3 1 12 -19 19 -14 49 10 56 21 5 21 6 2 12 -10 4 -21 4
-24 0 -3 -5 -5 33 -5 83 0 51 -4 104 -9 120 -5 18 -5 27 3 27 6 0 11 -7 11
-15 0 -8 7 -15 17 -15 15 0 15 1 0 18 -10 10 -17 26 -17 35 0 9 -8 17 -17 17
-15 0 -16 2 -3 10 8 5 11 12 7 16 -3 4 -14 1 -22 -6 -13 -11 -20 -9 -41 11
l-25 23 72 72 c40 40 76 71 81 68 4 -3 8 3 8 12 0 13 -12 6 -45 -26 -25 -25
-48 -44 -50 -42 -3 1 -6 2 -7 1 -24 -7 -38 -5 -35 4 3 7 9 11 15 10 5 -1 16 5
24 15 11 15 11 16 -3 5 -12 -10 -18 -10 -28 0 -9 9 -14 9 -20 -1 -4 -7 -16
-14 -25 -16 -10 -1 -21 -7 -24 -13 -4 -6 -17 -13 -30 -17 -32 -11 -37 14 -13
63 12 22 21 52 21 65 0 34 -37 58 -86 54 -32 -2 -39 0 -42 17 -4 21 -21 44
-23 32z m84 -162 c-7 -21 -13 -19 -13 6 0 11 4 18 10 14 5 -3 7 -12 3 -20z
m147 -40 c-22 -27 5 -42 40 -20 13 8 13 7 1 -8 -8 -10 -16 -15 -18 -13 -3 3
-15 -7 -28 -22 l-22 -26 2 36 c1 26 -2 35 -12 31 -10 -4 -11 -9 -3 -18 8 -10
8 -15 -1 -21 -7 -4 -9 -3 -5 4 3 6 2 13 -4 17 -5 3 -10 -1 -10 -9 0 -9 -5 -16
-11 -16 -5 0 -2 13 7 29 10 17 21 28 24 26 4 -2 16 2 26 10 25 19 30 19 14 0z
m-534 -30 c3 -22 -13 -9 -19 16 -4 16 -3 19 5 11 7 -7 13 -19 14 -27z m317 8
c-7 -2 -21 -2 -30 0 -10 3 -4 5 12 5 17 0 24 -2 18 -5z m-304 -46 c8 -10 7
-14 -4 -14 -8 0 -12 4 -9 8 2 4 -2 10 -8 12 -8 4 -9 6 -2 6 6 1 17 -5 23 -12z
m4 -41 c21 -16 22 -23 2 -23 -8 0 -13 3 -10 5 3 3 -3 11 -13 18 -9 7 -12 13
-7 13 6 0 18 -6 28 -13z m305 7 c-10 -2 -28 -2 -40 0 -13 2 -5 4 17 4 22 1 32
-1 23 -4z m9 -35 c2 -18 0 -19 -7 -8 -8 13 -11 12 -24 -5 -15 -20 -15 -20 -16
0 0 17 -2 18 -11 5 -9 -13 -10 -13 -6 0 2 8 17 18 33 21 16 4 29 7 29 8 1 0 2
-9 2 -21z m-119 -38 c4 -12 2 -13 -9 -2 -7 6 -21 12 -30 12 -10 0 -20 4 -23 9
-3 4 9 5 26 2 17 -4 34 -13 36 -21z m237 20 c-3 -5 -15 -10 -25 -10 -10 0 -21
-8 -24 -17 -4 -15 -4 -14 -3 2 1 11 13 22 27 26 14 4 26 7 28 8 2 1 0 -3 -3
-9z m-121 -55 c-4 -17 -2 -25 7 -26 8 0 3 -5 -10 -10 -18 -7 -26 -5 -37 8 -21
28 -17 45 7 38 15 -5 19 -4 15 4 -4 6 0 11 9 11 11 0 14 -6 9 -25z m-23 -58
c10 -3 21 -2 24 3 5 9 55 1 71 -12 17 -13 5 -49 -15 -46 -9 2 -17 -4 -17 -12
-1 -8 -2 -20 -3 -26 -1 -6 -14 -9 -31 -6 -24 3 -30 9 -30 28 0 17 4 22 15 18
8 -3 29 6 46 20 36 30 29 35 -8 6 -18 -14 -30 -17 -38 -10 -6 5 -15 6 -19 2
-4 -4 -7 -2 -6 3 5 23 -1 24 -21 4 -17 -17 -23 -18 -37 -7 -10 8 -13 9 -9 1 4
-6 -3 -31 -16 -55 -14 -24 -22 -48 -20 -55 2 -6 -3 -23 -13 -38 -9 -14 -14
-28 -10 -32 3 -3 6 -1 6 6 0 7 5 9 10 6 6 -3 10 -13 10 -21 0 -12 -4 -12 -20
-4 -14 7 -19 20 -18 45 1 19 5 32 11 28 5 -3 6 4 2 17 -5 17 -4 21 6 15 9 -6
11 -2 7 13 -4 12 -1 20 4 19 6 -1 11 8 13 20 1 12 -2 20 -7 17 -4 -3 -8 1 -8
8 0 8 10 19 23 24 12 6 16 9 10 7 -7 -1 -13 3 -13 9 0 7 13 9 38 5 30 -5 34
-4 17 5 -19 11 -19 11 0 18 13 5 21 3 23 -5 2 -7 12 -15 23 -18z m-238 -97 c3
-34 2 -47 -3 -35 -8 19 -14 103 -6 94 2 -2 6 -29 9 -59z m222 24 c1 -25 -9
-32 -20 -14 -10 17 -25 11 -25 -10 0 -11 6 -20 14 -20 9 0 14 -11 13 -34 -1
-34 -16 -41 -18 -8 0 11 -3 12 -6 5 -10 -27 -18 -11 -18 40 1 46 3 52 23 55
12 2 22 8 22 14 0 23 15 -5 15 -28z m252 -1 c-3 -10 -5 -4 -5 12 0 17 2 24 5
18 2 -7 2 -21 0 -30z m-35 -17 c6 4 6 -2 -1 -15 -7 -11 -14 -21 -16 -21 -2 0
-9 10 -16 21 -8 15 -8 19 0 15 7 -5 12 2 12 16 l2 23 4 -23 c2 -12 9 -19 15
-16z m-92 -2 c0 -12 6 -25 13 -27 6 -3 2 -6 -9 -6 -21 -1 -34 16 -34 43 0 7 7
13 15 13 9 0 15 -9 15 -23z m-286 -13 c4 -5 -1 -8 -9 -7 -21 3 -31 16 -12 16
9 0 18 -4 21 -9z m234 -40 c1 -16 -3 -33 -9 -37 -8 -5 -9 -3 -4 6 5 8 4 11 -2
7 -5 -3 -8 -22 -7 -41 2 -20 -1 -38 -6 -41 -6 -4 -10 -11 -10 -18 0 -6 7 -1
16 11 8 12 13 26 9 31 -3 5 -1 12 4 15 7 4 22 -71 17 -81 -1 -1 -13 1 -29 4
-25 5 -27 9 -25 49 1 26 5 41 11 37 6 -4 7 -1 1 8 -5 8 -9 29 -10 47 -1 27 2
32 20 32 17 0 22 -7 24 -29z m-241 10 c9 8 13 8 13 1 0 -20 -22 -25 -36 -8 -8
9 -9 12 -2 6 7 -6 16 -6 25 1z m372 -7 c6 4 11 5 11 2 0 -3 -9 -10 -20 -16
-17 -9 -20 -8 -20 12 0 17 3 19 9 9 5 -7 14 -10 20 -7z m-43 -20 c12 -12 24
-22 26 -21 2 1 -3 -3 -11 -10 -8 -7 -18 -10 -22 -7 -5 3 -9 -2 -9 -12 0 -11 6
-15 19 -11 11 3 22 -1 25 -8 3 -9 -7 -14 -29 -17 -19 -2 -31 0 -28 6 4 5 -5 6
-21 2 -25 -6 -26 -6 -9 12 16 16 19 16 31 2 11 -13 5 5 -24 76 -9 20 31 11 52
-12z m-195 -42 c10 2 14 -7 14 -29 1 -18 -3 -33 -8 -33 -4 0 -6 -4 -3 -9 6
-10 -24 -25 -32 -16 -3 3 1 5 9 5 11 0 11 2 -1 10 -12 7 -12 10 -1 10 7 0 11
6 8 14 -3 8 1 17 9 20 19 7 18 24 -2 22 -9 0 -19 6 -21 14 -4 12 -2 12 5 2 5
-7 15 -12 23 -10z m-252 -13 c-22 -14 -33 -10 -19 6 7 8 17 12 22 9 6 -4 5
-10 -3 -15z m131 -12 c-21 -17 -25 -48 -5 -41 8 3 12 11 8 18 -3 6 -3 8 2 4 4
-4 15 -2 24 5 8 6 2 -5 -13 -26 -16 -21 -31 -36 -33 -34 -6 7 -12 70 -7 79 3
4 13 8 22 8 15 -1 15 -2 2 -13z m-84 -36 c16 -22 45 -49 64 -60 27 -16 31 -21
15 -21 -12 0 -26 -5 -33 -12 -7 -7 -12 -9 -12 -5 0 4 -9 3 -20 -3 -14 -7 -20
-8 -20 0 0 6 -11 3 -25 -6 -16 -10 -25 -12 -25 -5 0 8 -10 6 -30 -4 -16 -9
-30 -12 -30 -8 0 12 70 83 81 83 6 0 8 4 5 9 -4 5 -16 4 -30 -2 -13 -7 -23
-14 -21 -18 2 -3 -2 -6 -10 -6 -23 0 -18 10 20 37 38 28 60 62 23 35 -32 -22
-48 -18 -18 5 14 11 28 20 31 20 3 0 18 -18 35 -39z m174 18 c0 -5 -7 -9 -15
-9 -9 0 -12 6 -9 15 6 15 24 11 24 -6z m98 -56 c-10 -2 -28 -2 -40 0 -13 2 -5
4 17 4 22 1 32 -1 23 -4z"/>
<path d="M12705 1490 c-4 -6 -15 -8 -25 -5 -10 3 -21 1 -24 -4 -4 -6 -13 -8
-20 -5 -8 3 -17 1 -21 -5 -3 -6 -14 -11 -25 -11 -10 0 -21 -7 -24 -16 -3 -8
-10 -12 -16 -9 -6 3 -13 -1 -16 -9 -3 -9 -11 -16 -16 -16 -14 0 -58 -43 -58
-56 0 -7 -7 -14 -15 -18 -8 -3 -15 -12 -15 -21 0 -8 -4 -15 -10 -15 -5 0 -10
-9 -10 -19 0 -11 -5 -23 -11 -26 -6 -4 -8 -13 -5 -21 3 -7 1 -16 -5 -20 -5 -3
-9 -13 -8 -22 1 -10 0 -19 0 -22 -8 -20 -7 -71 1 -76 5 -3 6 -14 3 -24 -3 -10
-1 -21 4 -24 6 -4 8 -13 5 -20 -3 -8 -1 -17 5 -21 6 -3 11 -15 11 -26 0 -10 5
-19 10 -19 6 0 10 -9 10 -20 0 -11 7 -20 15 -20 8 0 15 -6 15 -12 0 -15 43
-58 58 -58 5 0 12 -7 16 -15 3 -8 12 -15 21 -15 8 0 15 -4 15 -10 0 -5 9 -10
19 -10 11 0 23 -5 26 -11 4 -6 13 -8 21 -5 7 3 16 1 20 -5 3 -5 14 -7 24 -4
10 3 21 2 23 -2 6 -10 59 -9 74 0 6 4 18 4 26 1 8 -3 18 -1 21 5 4 6 13 8 20
5 8 -3 17 -1 21 5 3 6 15 11 26 11 10 0 19 5 19 10 0 6 7 10 15 10 9 0 18 7
21 15 4 8 11 15 16 15 15 0 58 43 58 58 0 6 7 12 15 12 8 0 15 9 15 20 0 11 5
20 10 20 6 0 10 9 10 19 0 11 5 23 11 26 6 4 8 13 5 21 -3 7 -1 16 5 20 6 3 8
13 5 21 -3 8 -3 20 1 26 11 18 12 66 1 73 -5 3 -6 14 -3 24 3 10 1 21 -4 24
-6 4 -8 13 -5 20 3 8 1 17 -5 21 -6 3 -11 15 -11 26 0 10 -4 19 -10 19 -5 0
-10 7 -10 15 0 9 -7 18 -15 21 -8 4 -15 11 -15 18 0 13 -44 56 -58 56 -5 0
-13 7 -16 16 -3 8 -10 12 -16 9 -6 -3 -13 1 -16 9 -3 9 -14 16 -24 16 -11 0
-22 5 -25 11 -4 6 -13 8 -21 5 -7 -3 -16 -1 -20 5 -3 5 -14 7 -24 4 -10 -3
-21 -1 -25 5 -4 6 -12 7 -24 0 -12 -6 -22 -5 -28 1 -8 8 -13 7 -18 -1z m-110
-260 c3 -6 -1 -13 -10 -16 -19 -8 -30 0 -20 15 8 14 22 14 30 1z m5 -89 c0
-27 3 -56 6 -65 5 -12 0 -16 -22 -16 -29 0 -29 0 -29 65 0 61 1 65 23 65 20 0
22 -5 22 -49z m130 36 c0 -7 -13 -12 -32 -12 -30 0 -33 -3 -36 -31 -4 -40 21
-63 49 -46 16 10 19 9 19 -3 0 -23 -46 -30 -75 -11 -20 13 -25 25 -25 56 0 27
6 42 18 49 25 15 82 14 82 -2z m132 -4 c44 -40 4 -121 -56 -109 -36 7 -56 30
-56 65 0 54 70 82 112 44z m66 -90 c-2 -10 -8 -18 -13 -18 -5 0 -11 8 -13 18
-2 10 3 17 13 17 10 0 15 -7 13 -17z"/>
<path d="M12790 1150 c-21 -39 15 -85 46 -59 27 22 11 79 -23 79 -7 0 -17 -9
-23 -20z"/>
<path d="M1753 1416 c15 -12 17 -27 15 -107 -3 -79 -6 -94 -20 -97 -13 -3 -16
3 -15 25 2 22 -2 28 -18 28 -29 0 -32 -39 -3 -59 31 -22 60 -20 92 5 24 19 26
25 26 106 0 70 3 88 18 99 15 12 8 13 -48 13 -57 0 -63 -1 -47 -13z"/>
<path d="M1883 1412 c13 -14 17 -38 17 -99 0 -64 3 -83 18 -96 41 -37 130 -29
152 14 6 10 10 50 10 90 0 53 4 77 17 91 15 17 14 18 -22 18 -36 0 -37 -1 -22
-18 12 -13 17 -37 17 -86 0 -58 -3 -70 -25 -91 -29 -30 -49 -31 -75 -5 -27 27
-29 153 -3 182 15 17 14 18 -42 18 -56 0 -57 -1 -42 -18z"/>
<path d="M2152 1413 c-48 -42 -28 -96 44 -122 49 -17 64 -29 64 -51 0 -35 -64
-41 -98 -10 -12 12 -22 27 -22 35 0 8 -4 15 -10 15 -5 0 -10 -17 -10 -38 0
-42 -2 -41 102 -45 51 -2 80 26 76 72 -3 33 -8 38 -58 63 -73 35 -84 46 -69
64 19 23 67 17 94 -12 l25 -27 0 34 0 34 -59 3 c-44 2 -63 -2 -79 -15z"/>
<path d="M2320 1393 l1 -38 15 28 c8 15 23 27 34 27 19 0 20 -7 20 -99 0 -86
-2 -100 -17 -104 -10 -3 11 -5 47 -6 49 0 61 2 48 10 -15 8 -18 25 -18 104 0
87 2 95 19 95 11 0 27 -10 35 -22 16 -22 16 -22 16 10 l0 32 -100 0 -100 0 0
-37z"/>
<path d="M2548 1418 c8 -8 12 -47 12 -109 0 -84 -2 -98 -17 -102 -10 -3 11 -5
47 -6 49 0 61 2 48 10 -15 8 -18 25 -18 101 0 75 3 93 18 104 15 12 9 13 -42
14 -47 0 -57 -3 -48 -12z"/>
<path d="M2715 1398 c-60 -55 -57 -147 6 -186 37 -23 92 -24 127 -3 45 29 40
44 -7 18 -32 -18 -43 -19 -64 -10 -46 21 -57 112 -21 171 25 39 85 27 112 -23
10 -17 11 -15 12 20 l0 40 -65 3 c-61 3 -66 1 -100 -30z"/>
<path d="M2913 1416 c14 -11 17 -29 17 -104 0 -76 -3 -93 -17 -101 -13 -8 10
-10 83 -11 l102 0 4 35 c5 40 -4 45 -20 11 -10 -23 -64 -42 -83 -30 -5 3 -9
25 -9 49 0 48 18 54 38 12 9 -18 11 -11 11 38 0 49 -2 56 -11 38 -20 -42 -38
-36 -38 12 0 43 1 45 29 45 20 0 36 -9 50 -26 l21 -27 0 37 0 36 -97 0 c-84
-1 -95 -3 -80 -14z"/>
<path d="M3203 1416 c14 -11 17 -29 17 -104 0 -76 -3 -93 -17 -101 -14 -8 -9
-10 26 -11 39 0 42 2 27 13 -14 10 -16 26 -14 91 l3 79 40 -91 c22 -51 43 -92
46 -92 3 0 25 42 47 93 l41 92 1 -87 c0 -74 -2 -87 -17 -91 -10 -3 11 -5 47
-6 49 0 61 2 48 10 -15 8 -18 25 -18 101 0 75 3 93 18 104 15 12 11 13 -31 14
-40 0 -49 -3 -56 -22 -5 -13 -20 -47 -33 -77 l-24 -54 -37 77 -36 76 -48 0
c-42 -1 -46 -2 -30 -14z"/>
<path d="M3533 1416 c14 -11 17 -29 17 -109 0 -83 -2 -96 -17 -100 -10 -3 32
-5 92 -5 75 -1 103 2 88 8 -21 9 -23 16 -23 87 l1 78 32 -35 c17 -19 56 -62
85 -95 l52 -59 0 104 c0 82 3 107 17 122 15 17 14 18 -27 18 l-44 0 22 -20
c17 -16 22 -32 22 -73 l-1 -52 -67 73 -67 73 -100 -1 c-85 -1 -97 -3 -82 -14z
m121 -2 c13 -5 16 -24 16 -105 l0 -99 -30 0 -30 0 0 98 c0 113 4 122 44 106z"/>
<path d="M3913 1412 c25 -28 24 -187 0 -201 -13 -8 5 -10 68 -11 102 0 132 16
149 81 9 33 8 46 -7 77 -25 51 -71 72 -157 72 -66 0 -68 -1 -53 -18z m123 -10
c53 -35 41 -176 -16 -183 -39 -4 -40 -1 -40 96 0 92 1 95 23 95 12 0 27 -4 33
-8z"/>
<path d="M4182 1413 c-48 -42 -28 -96 44 -122 49 -17 64 -29 64 -51 0 -35 -64
-41 -98 -10 -12 12 -22 27 -22 35 0 8 -4 15 -10 15 -5 0 -10 -17 -10 -38 0
-42 -2 -41 102 -45 51 -2 80 26 76 72 -3 33 -8 38 -58 63 -73 35 -84 46 -69
64 19 23 67 17 94 -12 l25 -27 0 34 0 34 -59 3 c-44 2 -63 -2 -79 -15z"/>
<path d="M1125 1308 c-27 -15 -75 -60 -75 -70 0 -5 13 1 30 13 16 12 27 25 25
29 -2 4 1 7 8 8 32 3 51 10 55 20 5 15 -17 15 -43 0z"/>
<path d="M1100 1251 c-19 -16 -33 -32 -30 -35 9 -8 70 35 70 50 0 18 1 18 -40
-15z"/>
<path d="M1174 1120 c1 -23 53 -56 53 -34 0 7 -3 13 -6 12 -31 -3 -42 4 -36
22 3 11 2 20 -3 20 -5 0 -9 -9 -8 -20z"/>
<path d="M402 1098 c3 -7 15 -14 27 -16 22 -3 22 -4 4 -19 -17 -14 -17 -14 0
-9 10 3 28 6 40 6 22 1 22 1 3 15 -11 8 -28 15 -38 15 -10 0 -18 5 -18 10 0 6
-5 10 -11 10 -6 0 -9 -6 -7 -12z"/>
<path d="M1698 1098 c16 -16 16 -145 0 -151 -7 -3 7 -6 32 -6 28 0 40 2 32 8
-8 5 -12 22 -10 42 l3 34 23 -25 22 -24 0 42 c0 42 -13 56 -24 27 -10 -28 -26
-15 -26 21 0 34 1 36 27 29 15 -3 33 -14 40 -23 11 -15 12 -14 13 11 0 27 0
27 -72 27 -56 0 -69 -3 -60 -12z"/>
<path d="M1865 1085 c-33 -32 -33 -84 -1 -122 34 -39 98 -39 132 0 53 62 15
147 -66 147 -30 0 -47 -6 -65 -25z m95 -4 c14 -27 13 -104 -2 -119 -33 -33
-68 -1 -68 63 0 46 15 75 40 75 11 0 24 -9 30 -19z"/>
<path d="M2044 1094 c23 -23 22 -129 -1 -143 -14 -8 -7 -10 32 -10 28 0 44 3
38 6 -7 2 -13 19 -13 36 l1 32 22 -37 c17 -29 28 -38 49 -38 l27 0 -24 37
c-23 32 -24 38 -10 53 21 23 19 57 -4 70 -11 5 -45 10 -76 10 -51 0 -55 -1
-41 -16z m94 -37 c-2 -12 -11 -23 -20 -25 -15 -3 -18 4 -18 33 0 33 2 35 21
25 13 -7 19 -19 17 -33z"/>
<path d="M2218 1103 c8 -3 12 -29 12 -78 0 -49 -4 -75 -12 -78 -7 -3 22 -6 65
-6 76 -1 77 -1 77 24 l0 25 -20 -20 c-11 -11 -29 -20 -40 -20 -16 0 -20 7 -20
38 l0 37 20 -25 20 -25 0 50 0 50 -20 -25 -20 -25 0 38 c0 35 2 38 23 32 12
-4 28 -14 35 -23 10 -14 12 -12 12 11 0 27 0 27 -72 26 -40 0 -67 -3 -60 -6z"/>
<path d="M2378 1098 c16 -16 16 -145 0 -151 -7 -3 3 -5 22 -5 19 0 29 2 23 5
-8 3 -13 25 -13 61 l0 57 60 -65 59 -65 1 76 c0 44 5 80 12 87 9 9 6 12 -17
12 -23 0 -26 -3 -17 -12 7 -7 12 -30 12 -52 l0 -41 -46 53 c-37 42 -52 52 -77
52 -24 0 -28 -3 -19 -12z"/>
<path d="M2578 1099 c-10 -5 -18 -20 -18 -33 0 -26 21 -47 68 -66 34 -13 42
-37 17 -46 -25 -10 -61 4 -73 28 -10 22 -11 22 -11 -8 -1 -28 2 -32 35 -37
102 -17 133 72 39 109 -32 12 -45 22 -43 33 5 24 44 25 67 2 l21 -21 0 23 c0
19 -6 22 -43 24 -23 2 -50 -2 -59 -8z"/>
<path d="M2708 1103 c8 -3 12 -29 12 -78 0 -49 -4 -75 -12 -78 -7 -3 10 -5 37
-5 28 0 44 2 38 5 -9 3 -13 29 -13 78 0 49 4 75 13 78 6 3 -10 5 -38 5 -27 0
-44 -2 -37 -5z"/>
<path d="M2835 1086 c-51 -51 -37 -124 30 -146 38 -13 84 2 93 30 4 11 0 11
-16 -3 -46 -41 -101 8 -88 79 11 57 70 70 94 21 10 -21 11 -21 11 8 1 29 -1
30 -49 33 -42 3 -54 -1 -75 -22z"/>
<path d="M3038 1103 c8 -3 12 -29 12 -78 0 -49 -4 -75 -12 -78 -7 -3 10 -5 37
-5 28 0 44 2 38 5 -9 3 -13 29 -13 78 0 49 4 75 13 78 6 3 -10 5 -38 5 -27 0
-44 -2 -37 -5z"/>
<path d="M3138 1098 c16 -16 16 -130 0 -146 -9 -9 -5 -12 17 -11 17 0 24 3 18
6 -9 3 -13 26 -13 65 l0 60 57 -66 c31 -36 60 -66 65 -66 4 0 8 36 8 80 0 47
4 80 10 80 6 0 10 -10 10 -22 l0 -22 20 22 c12 12 25 22 30 22 15 0 13 -147
-2 -153 -7 -3 7 -5 32 -5 25 0 39 2 33 5 -16 6 -18 139 -3 148 5 3 18 -3 30
-15 l20 -20 0 25 0 25 -112 -1 c-62 0 -107 -3 -100 -6 7 -3 12 -22 12 -46 l-1
-42 -44 48 c-32 34 -51 47 -71 47 -22 0 -25 -3 -16 -12z"/>
<path d="M3488 1098 c16 -16 16 -145 0 -151 -7 -3 22 -6 65 -6 l77 -1 0 27 0
27 -21 -23 c-31 -33 -63 -25 -67 17 -4 37 14 43 28 10 7 -18 9 -13 9 27 0 40
-2 45 -9 28 -14 -35 -30 -27 -30 13 0 34 1 36 28 30 15 -4 33 -14 40 -23 10
-15 12 -14 12 10 0 27 -1 27 -72 27 -56 0 -69 -3 -60 -12z"/>
<path d="M3648 1103 c8 -3 12 -29 12 -78 0 -49 -4 -75 -12 -78 -7 -3 22 -6 65
-6 l77 -1 -1 33 c0 17 -3 25 -6 17 -7 -21 -34 -40 -55 -40 -16 0 -18 9 -18 74
0 50 4 76 13 79 6 3 -10 5 -38 5 -27 0 -44 -2 -37 -5z"/>
<path d="M3808 1103 c8 -3 12 -29 12 -78 0 -49 -4 -75 -12 -78 -7 -3 22 -6 65
-6 60 -1 77 2 77 13 0 8 3 23 6 33 3 11 -2 8 -16 -9 -13 -17 -31 -28 -46 -28
-23 0 -24 2 -24 74 0 63 3 75 18 79 9 3 -8 5 -38 5 -30 0 -49 -2 -42 -5z"/>
<path d="M3968 1103 c8 -3 12 -29 12 -78 0 -49 -4 -75 -12 -78 -7 -3 10 -5 37
-5 28 0 44 2 38 5 -9 3 -13 29 -13 78 0 49 4 75 13 78 6 3 -10 5 -38 5 -27 0
-44 -2 -37 -5z"/>
<path d="M4086 1080 c-29 -35 -33 -75 -11 -107 34 -49 137 -51 144 -2 1 13 8
27 15 31 6 4 -9 8 -33 8 -35 0 -42 -3 -33 -12 7 -7 12 -20 12 -30 0 -25 -46
-24 -60 1 -24 46 -1 131 36 131 8 0 26 -12 39 -26 l25 -27 0 29 c0 28 -2 29
-54 32 -49 3 -55 1 -80 -28z"/>
<path d="M4253 1099 c13 -8 17 -24 17 -74 0 -50 -4 -66 -17 -74 -14 -8 2 -10
58 -11 61 0 78 3 83 16 12 31 6 37 -17 16 -13 -12 -33 -22 -45 -22 -18 0 -22
6 -22 35 0 40 16 46 30 13 7 -18 9 -13 9 27 0 40 -2 45 -9 28 -14 -35 -30 -27
-30 13 0 34 1 36 27 29 15 -3 33 -14 40 -23 11 -15 12 -14 13 11 l0 27 -77 0
c-58 -1 -73 -3 -60 -11z"/>
<path d="M4418 1098 c16 -16 16 -130 0 -146 -9 -9 -5 -12 18 -11 16 0 23 3 17
6 -9 3 -13 26 -13 65 l0 60 57 -66 c31 -36 60 -66 65 -66 4 0 8 36 8 79 0 54
4 81 13 84 6 3 -4 5 -23 5 -19 0 -29 -2 -22 -5 7 -3 12 -22 12 -46 l-1 -42
-44 48 c-32 34 -51 47 -71 47 -22 0 -25 -3 -16 -12z"/>
<path d="M4639 1097 c-82 -64 -21 -189 77 -157 19 7 34 16 34 21 0 6 -8 6 -19
-1 -48 -25 -81 1 -81 65 0 34 5 47 22 59 30 21 35 20 63 -10 l25 -27 0 29 c0
28 -2 29 -52 32 -31 1 -60 -3 -69 -11z"/>
<path d="M4778 1098 c16 -16 16 -145 0 -151 -7 -3 22 -6 65 -6 l77 -1 0 27 0
27 -21 -23 c-31 -33 -63 -25 -67 17 -4 37 14 43 28 10 7 -18 9 -13 9 27 0 40
-2 45 -9 28 -14 -35 -30 -27 -30 13 0 34 1 36 28 30 15 -4 33 -14 40 -23 10
-15 12 -14 12 10 0 27 -1 27 -72 27 -56 0 -69 -3 -60 -12z"/>
<path d="M4998 1103 c8 -3 12 -29 12 -78 0 -49 -4 -75 -12 -78 -7 -3 22 -6 65
-6 60 -1 77 2 77 13 0 8 3 23 6 33 3 11 -2 8 -16 -9 -13 -17 -31 -28 -46 -28
-23 0 -24 2 -24 74 0 63 3 75 18 79 9 3 -8 5 -38 5 -30 0 -49 -2 -42 -5z"/>
<path d="M5288 1103 c6 -2 12 -15 12 -28 0 -18 -4 -22 -19 -18 -28 7 -55 -37
-46 -77 8 -37 24 -47 72 -42 l38 4 -3 84 -3 84 -32 -1 c-18 0 -26 -3 -19 -6z
m12 -108 c0 -37 -14 -54 -24 -29 -8 21 -8 59 0 67 13 13 24 -5 24 -38z"/>
<path d="M5175 1068 c-15 -17 -19 -35 -17 -70 4 -56 27 -77 58 -52 17 14 17
15 2 10 -15 -5 -18 1 -18 39 0 36 3 45 18 45 15 1 15 2 1 13 -9 7 -18 18 -20
25 -3 9 -10 6 -24 -10z"/>
<path d="M1145 1060 c-4 -6 10 -11 37 -12 l43 -1 -45 -6 c-39 -5 -42 -7 -20
-13 31 -10 103 -10 125 -2 13 5 7 10 -22 20 -56 20 -110 26 -118 14z"/>
<path d="M1168 1003 c12 -2 32 -2 45 0 12 2 2 4 -23 4 -25 0 -35 -2 -22 -4z"/>
<path d="M1250 1000 c12 -7 8 -10 -15 -10 -30 0 -64 -15 -55 -23 12 -11 52
-19 46 -9 -3 5 5 13 19 16 28 7 34 36 8 36 -15 0 -16 -2 -3 -10z"/>
<path d="M1145 940 c3 -5 15 -7 27 -5 32 7 31 12 -2 13 -17 0 -28 -3 -25 -8z"/>
<path d="M1685 830 c4 -7 628 -10 1841 -10 1216 0 1834 3 1834 10 0 7 -620 10
-1841 10 -1224 0 -1838 -3 -1834 -10z"/>
<path d="M1130 791 c0 -5 8 -15 18 -22 15 -13 16 -12 4 3 -10 13 -10 17 0 21
8 4 7 6 -4 6 -10 1 -18 -3 -18 -8z"/>
<path d="M1120 695 c13 -14 26 -25 28 -25 3 0 -5 11 -18 25 -13 14 -26 25 -28
25 -3 0 5 -11 18 -25z"/>
<path d="M1820 700 c-23 -23 -24 -33 -10 -61 7 -13 21 -19 45 -19 33 0 55 20
55 49 0 16 -38 51 -55 51 -8 0 -24 -9 -35 -20z m56 -44 c-3 -14 -13 -26 -21
-26 -20 0 -30 46 -14 66 19 23 44 -5 35 -40z"/>
<path d="M2142 704 c-41 -29 -23 -84 28 -84 32 0 50 17 50 46 0 20 -32 54 -50
54 -3 0 -16 -7 -28 -16z m48 -40 c0 -27 -4 -34 -20 -34 -16 0 -20 7 -20 33 0
38 6 48 26 40 8 -3 14 -19 14 -39z"/>
<path d="M3413 710 c-27 -11 -32 -60 -9 -79 26 -22 70 -9 81 23 8 24 6 31 -14
47 -26 21 -27 21 -58 9z m45 -49 c-4 -30 -33 -40 -40 -14 -3 10 -1 29 4 42 7
20 11 21 24 10 8 -7 14 -24 12 -38z"/>
<path d="M1725 665 l0 -45 38 0 c29 0 37 4 36 18 0 10 -3 12 -6 5 -2 -7 -14
-13 -25 -13 -17 0 -20 5 -16 40 3 31 0 40 -12 40 -11 0 -15 -11 -15 -45z"/>
<path d="M1918 665 c-2 -27 1 -45 7 -45 7 0 9 15 7 36 l-4 36 35 -38 35 -38 3
47 c2 26 1 47 -3 47 -5 0 -8 -10 -8 -22 l0 -21 -23 21 c-34 32 -45 27 -49 -23z"/>
<path d="M2020 665 c0 -44 1 -45 33 -45 38 0 57 15 57 45 0 30 -19 45 -57 45
-32 0 -33 -1 -33 -45z m60 0 c0 -24 -5 -35 -15 -35 -10 0 -15 11 -15 35 0 24
5 35 15 35 10 0 15 -11 15 -35z"/>
<path d="M2235 665 c0 -25 5 -45 11 -45 6 0 9 14 7 33 l-4 32 29 -32 c16 -18
32 -33 35 -33 4 0 7 20 7 45 0 25 -4 45 -9 45 -4 0 -6 -12 -4 -27 l4 -28 -23
28 c-36 41 -53 36 -53 -18z"/>
<path d="M2370 650 c0 -33 4 -60 10 -60 6 0 10 27 10 60 0 33 -4 60 -10 60 -6
0 -10 -27 -10 -60z"/>
<path d="M2472 668 c3 -42 4 -43 38 -43 35 0 35 1 36 45 l2 45 -7 -40 c-4 -27
-12 -41 -23 -43 -15 -3 -18 4 -18 37 0 30 -4 41 -16 41 -12 0 -14 -9 -12 -42z"/>
<path d="M2568 665 c-2 -27 1 -45 7 -45 7 0 9 15 7 36 l-4 36 35 -38 35 -38 3
47 c2 26 1 47 -3 47 -5 0 -8 -10 -8 -22 l0 -21 -23 21 c-34 32 -45 27 -49 -23z"/>
<path d="M2670 665 c0 -36 3 -45 18 -45 14 0 17 7 14 45 -3 30 -9 45 -18 45
-10 0 -14 -13 -14 -45z"/>
<path d="M2720 700 c0 -5 7 -7 16 -3 14 5 16 0 12 -35 -3 -33 0 -42 12 -42 12
0 15 9 12 42 -4 35 -2 40 12 35 9 -4 16 -2 16 3 0 6 -18 10 -40 10 -22 0 -40
-4 -40 -10z"/>
<path d="M2815 665 l0 -45 38 0 c29 0 37 4 36 18 0 10 -3 12 -6 5 -7 -19 -43
-16 -43 3 0 10 6 14 15 10 10 -4 15 1 15 16 0 17 -2 18 -15 8 -12 -10 -15 -9
-15 5 0 13 6 16 25 13 14 -3 25 -1 25 3 0 5 -17 9 -37 9 l-38 0 0 -45z"/>
<path d="M2900 665 c0 -44 1 -45 33 -45 38 0 57 15 57 45 0 30 -19 45 -57 45
-32 0 -33 -1 -33 -45z m60 0 c0 -24 -5 -35 -15 -35 -10 0 -15 11 -15 35 0 24
5 35 15 35 10 0 15 -11 15 -35z"/>
<path d="M3038 665 c-3 -37 0 -45 14 -45 9 0 19 8 21 18 4 16 5 16 6 0 1 -11
9 -18 22 -18 20 0 20 1 3 29 -15 25 -15 32 -5 45 8 9 10 16 6 16 -4 0 -14 -8
-21 -17 -13 -17 -13 -17 -14 0 0 9 -6 17 -14 17 -9 0 -15 -15 -18 -45z"/>
<path d="M3135 665 c0 -33 4 -45 15 -45 11 0 15 12 15 45 0 33 -4 45 -15 45
-11 0 -15 -12 -15 -45z"/>
<path d="M3185 665 c0 -25 5 -45 11 -45 6 0 9 13 6 33 l-4 32 36 -34 36 -35
-1 50 c-1 30 -4 38 -6 21 l-4 -28 -20 26 c-33 41 -54 33 -54 -20z"/>
<path d="M3290 665 c0 -44 1 -45 33 -45 38 0 57 15 57 45 0 30 -19 45 -57 45
-32 0 -33 -1 -33 -45z m55 0 c0 -16 -6 -30 -12 -32 -9 -3 -13 7 -13 32 0 25 4
35 13 33 6 -3 12 -17 12 -33z"/>
<path d="M3500 665 c0 -25 4 -45 8 -45 4 0 7 17 5 38 l-3 37 18 -37 c9 -21 20
-38 23 -38 4 0 14 17 22 38 l17 37 -3 -37 c-2 -29 1 -38 13 -38 11 0 15 11 15
45 0 53 -24 62 -45 18 l-13 -28 -9 28 c-6 17 -17 27 -29 27 -16 0 -19 -7 -19
-45z"/>
<path d="M862 660 c0 -19 2 -29 5 -22 2 6 10 9 16 5 9 -5 9 -3 1 8 -6 8 -14
21 -17 29 -3 8 -5 -1 -5 -20z"/>
<path d="M827 624 c-12 -12 -8 -20 13 -21 11 -1 20 3 20 8 0 6 -4 8 -9 5 -5
-4 -11 -1 -13 5 -2 5 -7 7 -11 3z"/>
<path d="M12470 600 c0 -24 4 -27 35 -28 19 -1 35 3 35 8 0 5 -7 7 -15 4 -11
-4 -15 0 -15 16 0 16 4 20 15 16 8 -3 15 -1 15 4 0 5 -16 9 -35 8 -31 -1 -35
-4 -35 -28z"/>
<path d="M12554 615 c-9 -23 3 -45 25 -45 21 0 30 16 23 43 -5 21 -40 23 -48
2z m36 -15 c0 -11 -4 -20 -9 -20 -14 0 -23 18 -16 30 10 17 25 11 25 -10z"/>
<path d="M12640 620 c12 -7 12 -12 2 -22 -18 -18 -15 -28 11 -28 14 0 18 3 10
8 -8 5 -9 13 -3 22 15 23 12 30 -12 30 -18 0 -20 -2 -8 -10z"/>
<path d="M12680 600 c0 -28 1 -29 51 -28 48 0 50 1 47 26 -3 25 -7 27 -50 29
-47 2 -48 1 -48 -27z"/>
<path d="M12790 600 c0 -31 17 -39 38 -18 9 9 12 9 12 0 0 -7 9 -12 19 -12 15
0 19 7 19 30 -1 22 -6 30 -20 30 -10 0 -18 -5 -18 -12 0 -9 -3 -9 -12 0 -21
21 -38 13 -38 -18z"/>
<path d="M12893 600 c0 -22 5 -30 18 -30 9 0 20 6 22 13 4 10 6 10 6 0 1 -7
10 -13 20 -13 15 0 19 7 19 30 -1 22 -6 30 -19 30 -9 0 -20 -6 -22 -12 -4 -10
-6 -10 -6 0 -1 6 -9 12 -19 12 -14 0 -19 -8 -19 -30z"/>
<path d="M12990 600 c0 -22 5 -30 18 -30 10 0 21 3 25 6 10 10 -4 34 -22 35
-12 0 -12 2 4 9 19 8 19 9 -2 9 -19 1 -23 -4 -23 -29z"/>
<path d="M1720 520 c0 -16 4 -30 9 -30 12 0 22 30 14 42 -3 7 -1 8 5 4 7 -4
12 -2 12 3 0 6 -9 11 -20 11 -16 0 -20 -7 -20 -30z"/>
<path d="M1771 536 c-6 -7 -9 -21 -5 -30 8 -21 21 -21 20 2 -1 9 4 17 9 17 6
0 9 -8 8 -17 -2 -10 2 -18 7 -18 6 0 10 6 10 13 0 8 3 8 8 2 4 -6 16 -12 27
-12 15 -1 21 5 21 20 0 12 -5 25 -10 29 -19 13 -36 9 -36 -9 -1 -17 -1 -17
-11 0 -12 20 -32 22 -48 3z"/>
<path d="M1890 520 c0 -27 3 -30 30 -30 21 0 30 5 30 17 0 14 2 14 20 -2 20
-18 20 -17 20 16 0 23 -3 30 -9 20 -6 -9 -11 -10 -15 -2 -12 19 -26 12 -26
-14 0 -14 -6 -25 -13 -25 -7 0 -13 9 -13 19 0 11 4 17 8 15 4 -3 8 0 8 5 0 6
-9 11 -20 11 -16 0 -20 -7 -20 -30z"/>
<path d="M2004 539 c-4 -7 1 -18 12 -27 16 -13 17 -14 2 -9 -10 4 -18 2 -18
-3 0 -5 17 -9 38 -8 37 0 38 1 33 32 l-5 31 -5 -29 c-5 -24 -8 -27 -18 -15 -6
8 -12 17 -13 22 -5 14 -18 18 -26 6z"/>
<path d="M2090 535 c-17 -21 -5 -45 22 -44 18 1 19 2 5 6 -25 6 -17 39 8 35
17 -2 17 -1 5 7 -20 14 -25 14 -40 -4z"/>
<path d="M2168 520 c-4 -27 -2 -30 21 -29 19 1 21 3 8 6 -14 4 -17 11 -13 29
4 13 2 24 -3 24 -5 0 -11 -13 -13 -30z"/>
<path d="M2220 520 c0 -16 5 -30 10 -30 6 0 10 14 10 30 0 17 -4 30 -10 30 -5
0 -10 -13 -10 -30z"/>
<path d="M2251 519 c1 -19 3 -26 6 -16 5 18 6 18 24 1 18 -17 19 -16 18 17 -1
19 -3 26 -6 16 -5 -18 -6 -18 -24 -1 -18 17 -19 16 -18 -17z"/>
<path d="M2320 535 c-7 -8 -10 -22 -6 -30 7 -20 46 -20 46 1 0 14 -3 14 -15 4
-13 -10 -15 -9 -15 10 0 16 4 20 15 16 8 -3 15 -1 15 4 0 15 -26 12 -40 -5z"/>
<path d="M2372 523 c2 -20 9 -29 26 -31 19 -3 22 1 21 30 -2 30 -2 31 -6 6 -5
-35 -23 -37 -23 -3 0 14 -5 25 -11 25 -6 0 -9 -12 -7 -27z"/>
<path d="M2439 523 c-5 -30 -3 -33 18 -33 14 0 21 4 18 10 -4 6 -10 8 -15 5
-5 -3 -10 7 -12 22 -3 28 -4 28 -9 -4z"/>
<path d="M2463 537 c-5 -8 30 -47 42 -47 11 0 4 23 -10 34 -13 9 -11 11 10 11
19 0 25 -5 25 -22 0 -13 5 -23 10 -23 6 0 10 6 10 14 0 8 3 21 6 30 5 13 -2
15 -41 14 -25 -2 -49 -6 -52 -11z"/>
<path d="M2570 520 c0 -16 5 -30 10 -30 6 0 10 14 10 30 0 17 -4 30 -10 30 -5
0 -10 -13 -10 -30z"/>
<path d="M2613 543 c-7 -3 -13 -16 -13 -29 0 -21 5 -24 36 -24 19 0 33 4 30 9
-3 5 -15 7 -26 4 -15 -4 -20 0 -20 16 0 27 9 27 42 -4 15 -14 30 -25 33 -25
12 0 4 24 -12 36 -17 13 -17 14 2 7 11 -3 17 -3 13 2 -9 9 -67 14 -85 8z"/>
<path d="M2786 538 c15 -27 37 -47 45 -42 12 7 11 54 -1 54 -5 0 -7 -8 -3 -17
6 -17 5 -17 -14 0 -23 20 -37 23 -27 5z"/>
<path d="M2850 519 c0 -26 3 -30 22 -27 26 3 37 36 16 49 -25 17 -38 9 -38
-22z"/>
<path d="M2924 539 c-4 -8 -3 -9 4 -5 8 5 12 -2 12 -18 0 -14 5 -26 10 -26 6
0 10 12 10 26 0 14 4 23 10 19 6 -3 10 -14 10 -24 0 -13 7 -18 23 -18 27 0 35
44 8 50 -35 9 -80 7 -87 -4z"/>
<path d="M3101 519 c0 -25 2 -29 8 -16 6 17 8 17 20 3 15 -18 71 -22 71 -5 0
7 -8 18 -17 26 -17 14 -17 14 0 9 11 -3 16 -2 12 4 -9 15 -25 12 -32 -6 -3 -9
0 -20 8 -25 11 -7 11 -9 -3 -9 -13 0 -18 8 -19 28 -1 18 -3 21 -6 9 -5 -18 -6
-18 -24 -1 -18 17 -19 16 -18 -17z"/>
<path d="M3223 543 c-7 -2 -13 -16 -13 -29 0 -20 5 -24 28 -23 16 1 20 3 10 6
-10 2 -18 14 -18 25 0 14 5 18 16 14 8 -3 12 -2 9 4 -7 11 -13 11 -32 3z"/>
<path d="M3270 521 c0 -29 2 -31 38 -31 38 0 38 1 33 33 -6 32 -6 32 -9 4 -4
-31 -27 -32 -27 -1 0 10 -8 20 -17 22 -14 3 -18 -3 -18 -27z"/>
<path d="M3360 519 c0 -16 5 -29 10 -29 10 0 14 15 10 35 -1 6 2 7 6 3 4 -4
13 -3 21 3 10 9 13 6 13 -15 0 -14 5 -26 10 -26 6 0 10 12 10 26 0 14 4 23 10
19 6 -3 10 -15 10 -26 0 -10 5 -19 10 -19 6 0 10 13 10 29 0 28 -1 28 -60 28
-59 0 -60 0 -60 -28z"/>
<path d="M3500 535 c-18 -21 -5 -47 22 -43 26 3 37 36 16 49 -18 12 -24 11
-38 -6z m30 -15 c0 -11 -4 -20 -10 -20 -5 0 -10 9 -10 20 0 11 5 20 10 20 6 0
10 -9 10 -20z"/>
<path d="M3561 519 c1 -19 3 -26 6 -16 5 18 6 18 24 1 18 -17 19 -16 18 17 -1
19 -3 26 -6 16 -5 -18 -6 -18 -24 -1 -18 17 -19 16 -18 -17z"/>
<path d="M3644 539 c-4 -7 1 -18 12 -27 16 -13 17 -14 2 -9 -10 4 -18 3 -18
-2 0 -5 33 -9 74 -10 l75 -1 -2 27 c-3 38 -37 45 -37 9 0 -20 -5 -26 -22 -26
-19 0 -20 2 -8 10 10 6 11 10 3 10 -7 0 -13 5 -13 11 0 6 7 8 16 5 8 -3 12 -2
9 4 -12 20 -45 11 -45 -12 0 -12 -3 -18 -7 -14 -5 4 -8 13 -8 19 0 15 -22 20
-31 6z"/>
<path d="M3800 546 c0 -3 5 -17 11 -33 l11 -28 13 25 c17 29 19 52 4 30 -8
-11 -12 -12 -16 -2 -4 11 -23 18 -23 8z"/>
<path d="M3860 520 c0 -16 5 -30 10 -30 6 0 10 14 10 30 0 17 -4 30 -10 30 -5
0 -10 -13 -10 -30z"/>
<path d="M3900 535 c-17 -21 -5 -45 22 -44 17 1 18 2 6 6 -10 2 -18 14 -18 25
0 14 5 18 16 14 8 -3 12 -2 9 4 -9 14 -21 12 -35 -5z"/>
<path d="M3950 520 c0 -29 2 -30 44 -30 44 0 66 12 46 25 -6 4 -8 10 -5 15 9
14 -16 23 -28 10 -9 -9 -8 -14 5 -24 16 -12 15 -13 -10 -14 -21 0 -28 4 -28
18 0 10 4 16 8 14 4 -3 8 0 8 5 0 6 -9 11 -20 11 -16 0 -20 -7 -20 -30z"/>
<path d="M2744 525 c3 -8 1 -15 -4 -15 -6 0 -10 -4 -10 -8 0 -4 17 -8 38 -9
20 -1 29 1 20 4 -9 2 -20 13 -23 24 -4 10 -11 19 -17 19 -5 0 -8 -7 -4 -15z"/>
<path d="M3054 525 c-4 -11 -8 -22 -10 -25 -1 -3 9 -6 22 -6 28 -2 30 4 10 32
-14 19 -15 19 -22 -1z"/>
<path d="M532 435 c0 -16 2 -22 5 -12 2 9 2 23 0 30 -3 6 -5 -1 -5 -18z"/>
<path d="M551 433 c0 -16 3 -22 6 -15 4 10 8 10 19 1 11 -9 14 -8 14 2 0 8 -9
20 -20 27 -18 11 -20 10 -19 -15z"/>
<path d="M607 453 c-4 -3 -7 -14 -7 -24 0 -14 9 -17 45 -17 37 0 45 3 45 18 0
25 -17 35 -35 20 -11 -9 -15 -9 -15 -1 0 12 -23 15 -33 4z m33 -24 c0 -5 -4
-9 -10 -9 -5 0 -10 7 -10 16 0 8 5 12 10 9 6 -3 10 -10 10 -16z m40 6 c0 -8
-4 -15 -10 -15 -5 0 -10 7 -10 15 0 8 5 15 10 15 6 0 10 -7 10 -15z"/>
<path d="M700 436 c0 -19 5 -26 18 -26 24 0 23 44 -1 48 -12 3 -17 -4 -17 -22z"/>
<path d="M751 433 c0 -16 3 -22 6 -15 5 14 33 17 33 3 0 -5 31 -9 70 -9 66 1
69 2 58 21 -9 18 -11 19 -20 4 -11 -21 -29 -22 -22 -2 4 9 -1 18 -12 22 -11 4
-19 2 -22 -6 -3 -8 -8 -9 -17 -1 -9 7 -21 7 -39 0 -18 -6 -25 -6 -21 0 3 6 1
10 -4 10 -6 0 -11 -12 -10 -27z m69 2 c0 -8 -4 -15 -10 -15 -5 0 -10 7 -10 15
0 8 5 15 10 15 6 0 10 -7 10 -15z"/>
<path d="M938 435 c2 -14 8 -25 12 -25 5 0 6 9 3 20 -3 11 0 20 6 20 6 0 11
-8 11 -18 0 -14 8 -19 35 -20 28 -1 35 2 35 18 0 25 -17 35 -35 20 -11 -9 -15
-9 -15 -1 0 6 -13 11 -29 11 -25 0 -28 -3 -23 -25z m92 0 c0 -8 -4 -15 -10
-15 -5 0 -10 7 -10 15 0 8 5 15 10 15 6 0 10 -7 10 -15z"/>
<path d="M1051 434 c0 -16 3 -23 6 -16 4 10 8 10 19 1 11 -9 14 -6 13 17 0 16
-3 23 -6 16 -4 -10 -8 -10 -19 -1 -11 9 -14 6 -13 -17z"/>
<path d="M2030 350 c0 -25 4 -39 10 -35 6 3 10 19 10 35 0 16 -4 32 -10 35 -6
4 -10 -10 -10 -35z"/>
<path d="M2179 383 c0 -5 -2 -18 -3 -30 -2 -13 1 -23 6 -23 4 0 8 14 8 30 0
26 -8 44 -11 23z"/>
<path d="M2389 383 c0 -5 -2 -18 -3 -30 -2 -13 1 -23 6 -23 4 0 8 14 8 30 0
26 -8 44 -11 23z"/>
<path d="M2473 375 c-18 -19 -16 -45 2 -45 10 0 15 10 15 30 0 34 0 34 -17 15z"/>
<path d="M3020 362 c0 -25 4 -32 20 -32 11 0 20 6 20 13 0 8 -9 22 -20 32 -20
18 -20 17 -20 -13z"/>
<path d="M3300 380 c11 -7 11 -10 2 -10 -7 0 -11 -4 -8 -8 3 -5 -2 -9 -10 -9
-9 0 -13 6 -10 14 3 8 1 11 -4 8 -6 -3 -10 -16 -10 -29 0 -19 4 -22 31 -18 17
2 33 11 36 18 6 16 -14 44 -31 44 -6 0 -4 -5 4 -10z"/>
<path d="M3340 362 c0 -26 4 -29 32 -30 23 -1 28 2 18 8 -13 8 -13 10 0 10 11
0 11 3 2 12 -10 10 -15 10 -22 -2 -8 -13 -10 -13 -10 2 0 9 -4 20 -10 23 -6 4
-10 -6 -10 -23z"/>
<path d="M3500 360 c0 -16 5 -30 10 -30 6 0 10 14 10 30 0 17 -4 30 -10 30 -5
0 -10 -13 -10 -30z"/>
<path d="M3543 375 c-18 -19 -16 -45 2 -45 10 0 15 10 15 30 0 34 0 34 -17 15z"/>
<path d="M702 355 c0 -16 2 -22 5 -12 2 9 2 23 0 30 -3 6 -5 -1 -5 -18z"/>
<path d="M730 365 c-20 -24 -1 -36 56 -34 48 2 54 5 54 23 0 15 -7 21 -24 22
-18 1 -22 -2 -19 -17 3 -11 0 -19 -6 -19 -6 0 -11 9 -11 20 0 11 -4 20 -9 20
-6 0 -8 -9 -6 -21 3 -17 2 -19 -10 -9 -8 7 -12 16 -9 21 9 14 -2 10 -16 -6z"/>
<path d="M863 364 c-16 -28 -8 -34 39 -34 34 0 38 3 38 25 0 14 -4 25 -9 25
-6 0 -8 -9 -6 -20 2 -12 -2 -20 -10 -20 -8 0 -12 6 -9 14 3 8 0 17 -7 22 -9 5
-10 2 -6 -9 3 -9 2 -19 -3 -22 -5 -3 -10 5 -12 17 l-3 23 -12 -21z"/>
<path d="M2147 373 c-11 -10 -8 -43 3 -43 6 0 10 11 10 25 0 26 -2 29 -13 18z"/>
<path d="M2997 373 c-11 -10 -8 -43 3 -43 6 0 10 11 10 25 0 26 -2 29 -13 18z"/>
<path d="M3150 355 c0 -14 5 -25 10 -25 6 0 10 11 10 25 0 14 -4 25 -10 25 -5
0 -10 -11 -10 -25z"/>
<path d="M3187 373 c-11 -10 -8 -43 3 -43 6 0 10 11 10 25 0 26 -2 29 -13 18z"/>
<path d="M1717 351 c6 -23 37 -21 41 2 3 12 -4 17 -21 17 -20 0 -24 -4 -20
-19z"/>
<path d="M1832 353 c4 -20 29 -25 40 -8 13 18 9 25 -18 25 -19 0 -25 -4 -22
-17z"/>
<path d="M1892 353 c4 -20 29 -25 40 -8 13 18 9 25 -18 25 -19 0 -25 -4 -22
-17z"/>
<path d="M1952 351 c4 -20 35 -22 41 -2 3 12 -2 17 -20 17 -15 0 -23 -5 -21
-15z"/>
<path d="M2061 353 c-1 -14 5 -23 14 -23 9 0 15 9 14 23 0 21 -1 21 -8 2 l-8
-20 -5 20 c-5 18 -6 18 -7 -2z"/>
<path d="M2100 350 c0 -11 6 -20 14 -20 9 0 14 9 13 20 -1 11 -7 20 -14 20 -7
0 -13 -9 -13 -20z"/>
<path d="M2207 363 c-12 -11 -8 -33 6 -33 7 0 13 9 14 20 2 20 -8 26 -20 13z"/>
<path d="M2245 360 c-7 -12 2 -30 16 -30 6 0 7 5 4 10 -4 7 3 9 22 5 l28 -7
-29 16 c-33 19 -33 19 -41 6z"/>
<path d="M2320 350 c0 -15 7 -20 25 -20 18 0 25 5 25 20 0 15 -7 20 -25 20
-18 0 -25 -5 -25 -20z"/>
<path d="M2410 350 c0 -13 7 -20 20 -20 13 0 20 7 20 20 0 13 -7 20 -20 20
-13 0 -20 -7 -20 -20z"/>
<path d="M2509 368 c-7 -24 -5 -38 7 -38 8 0 14 9 14 20 0 11 -4 20 -10 20 -5
0 -10 -1 -11 -2z"/>
<path d="M2577 363 c-12 -11 -8 -33 6 -33 7 0 13 9 14 20 2 20 -8 26 -20 13z"/>
<path d="M2617 364 c-14 -14 -7 -35 11 -32 9 2 17 10 17 17 0 16 -18 25 -28
15z"/>
<path d="M2660 351 c0 -17 6 -21 31 -21 24 0 30 4 27 18 -2 10 -14 18 -31 20
-22 3 -27 -1 -27 -17z"/>
<path d="M2807 363 c-13 -13 -7 -33 11 -32 10 0 12 3 5 6 -7 2 -13 9 -13 14 0
6 5 7 10 4 6 -3 10 -1 10 4 0 12 -13 14 -23 4z"/>
<path d="M2900 350 c0 -11 7 -20 15 -20 8 0 15 9 15 20 0 11 -7 20 -15 20 -8
0 -15 -9 -15 -20z"/>
<path d="M2940 350 c0 -13 7 -20 20 -20 13 0 20 7 20 20 0 13 -7 20 -20 20
-13 0 -20 -7 -20 -20z"/>
<path d="M3070 350 c0 -11 7 -20 15 -20 8 0 15 9 15 20 0 11 -7 20 -15 20 -8
0 -15 -9 -15 -20z"/>
<path d="M3110 350 c0 -24 15 -27 24 -4 9 22 8 24 -9 24 -8 0 -15 -9 -15 -20z"/>
<path d="M3214 340 c-1 -17 3 -30 8 -30 5 0 7 4 4 9 -4 5 -1 11 5 13 5 2 7 11
4 21 -11 26 -20 20 -21 -13z"/>
<path d="M3410 340 c0 -30 21 -42 35 -20 3 6 15 10 26 10 14 0 19 6 17 18 -4
19 -33 24 -33 5 0 -6 -3 -15 -7 -19 -5 -4 -8 2 -8 14 0 13 -6 22 -15 22 -10 0
-15 -10 -15 -30z"/>
<path d="M3572 353 c5 -26 38 -29 38 -4 0 15 -6 21 -21 21 -14 0 -19 -5 -17
-17z"/>
<path d="M3627 363 c-12 -11 -8 -33 6 -33 7 0 13 9 14 20 2 20 -8 26 -20 13z"/>
<path d="M3660 340 c0 -34 5 -37 27 -15 17 18 11 45 -12 45 -10 0 -15 -10 -15
-30z"/>
<path d="M3710 350 c0 -11 4 -20 9 -20 5 0 11 9 14 20 3 13 0 20 -9 20 -8 0
-14 -9 -14 -20z"/>
<path d="M3745 361 c-8 -15 3 -31 21 -31 9 0 14 7 12 17 -4 20 -24 28 -33 14z"/>
<path d="M3797 363 c-13 -13 -7 -33 11 -32 10 0 12 3 5 6 -7 2 -13 9 -13 14 0
6 5 7 10 4 6 -3 10 -1 10 4 0 12 -13 14 -23 4z"/>
<path d="M3837 363 c-12 -11 -8 -33 6 -33 7 0 13 9 14 20 2 20 -8 26 -20 13z"/>
<path d="M3879 368 c-7 -24 -5 -38 7 -38 8 0 14 9 14 20 0 11 -4 20 -10 20 -5
0 -10 -1 -11 -2z"/>
<path d="M3910 350 c0 -11 7 -20 15 -20 17 0 18 2 9 24 -9 23 -24 20 -24 -4z"/>
<path d="M3976 355 c-6 -16 19 -33 31 -21 4 3 1 6 -5 6 -7 0 -12 5 -12 11 0 5
5 7 10 4 6 -3 10 -1 10 4 0 17 -27 13 -34 -4z"/>
<path d="M4020 350 c0 -11 7 -20 15 -20 8 0 15 9 15 20 0 11 -7 20 -15 20 -8
0 -15 -9 -15 -20z"/>
<path d="M4060 350 c0 -16 7 -20 30 -20 23 0 30 4 30 20 0 16 -7 20 -30 20
-23 0 -30 -4 -30 -20z"/>
<path d="M0 140 c0 -20 7 -20 6830 -20 6823 0 6830 0 6830 20 0 20 -7 20
-6830 20 -6823 0 -6830 0 -6830 -20z"/>
  </g>
  <!-- Gold layer -->
  <g transform="translate(0,173) scale(0.1,-0.1)" fill="#82652b" stroke="none">
<path d="M890 1391 c0 -25 6 -27 13 -6 4 8 2 17 -3 20 -6 4 -10 -3 -10 -14z"/>
<path d="M1102 1317 l-73 -73 24 -23 c24 -22 25 -22 58 -4 18 11 35 25 37 33
3 9 -5 7 -24 -7 -45 -31 -54 -35 -54 -24 0 5 18 22 40 38 22 15 42 34 45 42 6
15 8 17 -62 -38 -24 -18 -43 -28 -43 -23 0 12 67 72 79 72 10 0 54 70 48 76
-2 2 -36 -29 -75 -69z"/>
<path d="M1070 1333 c-54 -72 -56 -83 -6 -28 25 28 45 56 46 63 0 17 -1 16
-40 -35z"/>
<path d="M1033 1333 c-9 -16 -22 -34 -27 -42 -8 -11 -8 -13 0 -8 13 7 56 77
49 77 -3 0 -12 -12 -22 -27z"/>
<path d="M986 1308 l-18 -33 21 25 c18 22 26 40 18 40 -1 0 -11 -15 -21 -32z"/>
<path d="M803 1323 c9 -2 23 -2 30 0 6 3 -1 5 -18 5 -16 0 -22 -2 -12 -5z"/>
<path d="M520 1230 c14 -10 27 -17 29 -14 6 5 -31 33 -44 33 -5 1 1 -8 15 -19z"/>
<path d="M798 1243 c12 -2 30 -2 40 0 9 3 -1 5 -23 4 -22 0 -30 -2 -17 -4z"/>
<path d="M816 1221 c-16 -3 -30 -10 -31 -16 -1 -5 0 -7 3 -2 6 12 50 8 55 -5
3 -7 4 -3 4 10 -1 12 -1 21 -2 21 0 -1 -13 -4 -29 -8z"/>
<path d="M1110 1200 c-13 -8 -13 -10 2 -10 9 0 20 5 23 10 8 13 -5 13 -25 0z"/>
<path d="M826 1148 c5 -8 0 -9 -14 -6 -25 7 -28 -8 -8 -35 11 -13 19 -15 37
-8 13 5 18 10 10 10 -9 1 -11 9 -7 26 5 19 2 25 -9 25 -10 0 -13 -5 -9 -12z"/>
<path d="M1116 1123 c5 -16 9 -70 9 -121 0 -50 1 -88 3 -83 1 4 14 6 29 3 18
-3 24 -1 19 7 -4 6 -11 9 -16 6 -5 -3 -11 -1 -15 5 -4 6 9 10 32 11 21 1 30 3
21 6 -39 10 -10 33 40 33 21 0 24 2 12 10 -12 8 -10 10 10 10 14 0 32 5 40 10
10 6 -2 8 -37 3 -28 -3 -68 -2 -90 3 l-38 8 45 6 45 7 -43 1 c-50 2 -48 22 2
22 19 0 33 5 33 13 0 8 -15 11 -46 9 -33 -2 -42 0 -31 7 8 5 17 8 21 5 4 -2
10 3 13 11 4 12 0 14 -19 9 -19 -5 -25 -2 -25 10 0 9 -5 16 -11 16 -8 0 -8 -9
-3 -27z m97 -120 c-13 -2 -33 -2 -45 0 -13 2 -3 4 22 4 25 0 35 -2 23 -4z"/>
<path d="M460 1132 c0 -5 11 -14 25 -20 14 -6 25 -10 25 -8 0 2 -11 11 -25 20
-14 9 -25 13 -25 8z"/>
<path d="M420 1099 c0 -5 7 -9 16 -9 8 0 25 -5 37 -12 22 -12 21 -12 -8 -19
l-30 -7 33 -1 c32 -1 38 5 24 25 -10 15 -72 35 -72 23z"/>
<path d="M383 1063 c9 -2 25 -2 35 0 9 3 1 5 -18 5 -19 0 -27 -2 -17 -5z"/>
<path d="M881 1044 c-17 -14 -38 -23 -46 -20 -11 4 -15 -1 -15 -18 0 -19 6
-25 30 -28 17 -3 30 0 31 6 1 6 2 18 3 26 0 8 8 14 17 12 17 -2 33 34 19 43
-5 3 -22 -7 -39 -21z"/>
<path d="M718 1052 c-10 -2 -18 -10 -18 -17 0 -9 6 -12 15 -9 18 7 19 0 4 -27
-5 -11 -15 -16 -21 -13 -7 4 -8 2 -4 -5 4 -6 0 -35 -10 -62 -18 -50 -18 -51 0
-65 23 -16 31 -12 22 13 -6 15 -8 15 -16 3 -6 -8 -10 -10 -10 -5 0 6 7 21 16
33 8 12 14 28 11 35 -2 6 6 31 20 55 24 45 21 71 -9 64z"/>
<path d="M375 1025 c35 -9 42 -14 25 -15 -24 -2 -24 -2 5 -11 43 -13 84 -2 82
22 -1 17 -9 19 -82 18 l-80 -1 50 -13z"/>
<path d="M571 1004 c0 -21 4 -48 9 -59 5 -12 6 1 3 35 -7 66 -13 79 -12 24z"/>
<path d="M790 1033 c0 -7 -10 -13 -22 -15 -20 -3 -22 -9 -23 -55 0 -51 8 -67
18 -40 3 7 6 6 6 -5 2 -33 17 -26 18 8 1 23 -4 34 -13 34 -8 0 -14 9 -14 20 0
13 7 20 19 20 25 0 37 18 22 33 -8 8 -11 8 -11 0z"/>
<path d="M1052 1015 c0 -16 2 -22 5 -12 2 9 2 23 0 30 -3 6 -5 -1 -5 -18z"/>
<path d="M1001 1002 c0 -14 -5 -21 -12 -16 -8 4 -8 0 0 -15 7 -11 14 -21 16
-21 2 0 9 10 16 21 7 13 7 19 1 15 -6 -3 -13 4 -15 16 l-4 23 -2 -23z"/>
<path d="M900 994 c0 -20 11 -44 21 -44 5 0 9 13 9 28 0 19 -5 29 -15 29 -8 0
-15 -6 -15 -13z"/>
<path d="M460 983 c-39 -7 -51 -25 -15 -23 47 3 52 0 25 -15 l-25 -14 28 -1
c16 0 26 -4 22 -10 -3 -5 -1 -10 5 -10 7 0 9 8 4 23 -4 12 -7 30 -6 40 0 9 -2
16 -6 16 -4 -1 -18 -4 -32 -6z"/>
<path d="M614 973 c10 -11 37 -12 30 -2 -3 5 -12 9 -21 9 -9 0 -13 -3 -9 -7z"/>
<path d="M834 928 c1 -18 5 -39 10 -47 6 -9 5 -12 -1 -8 -6 4 -10 -11 -11 -37
-2 -40 0 -44 25 -49 16 -3 28 -5 29 -4 5 10 -10 85 -17 81 -5 -3 -7 -10 -4
-15 4 -5 -1 -19 -9 -31 -9 -12 -16 -17 -16 -11 0 7 4 14 10 18 5 3 8 21 6 41
-1 19 2 38 7 41 6 4 7 1 2 -7 -5 -9 -4 -11 4 -6 6 4 10 21 9 37 -2 22 -7 29
-24 29 -18 0 -21 -5 -20 -32z"/>
<path d="M614 934 c14 -17 36 -12 36 8 0 7 -4 7 -13 -1 -9 -7 -18 -7 -25 -1
-7 6 -6 3 2 -6z"/>
<path d="M980 932 c0 -20 3 -21 20 -12 11 6 20 13 20 16 0 3 -5 2 -11 -2 -6
-3 -15 0 -20 7 -6 10 -9 8 -9 -9z"/>
<path d="M914 926 c29 -71 35 -89 24 -76 -12 14 -15 14 -31 -2 -17 -18 -16
-18 9 -12 16 4 25 3 21 -2 -3 -6 9 -8 28 -6 22 3 32 8 29 17 -3 7 -14 11 -25
8 -13 -4 -19 0 -19 11 0 10 4 15 9 12 4 -3 14 0 22 7 8 7 13 11 11 10 -2 -1
-14 9 -26 21 -21 23 -61 32 -52 12z"/>
<path d="M743 880 c2 -8 12 -14 21 -14 20 2 21 -15 2 -22 -8 -3 -12 -12 -9
-20 3 -8 -1 -14 -8 -14 -11 0 -11 -3 1 -10 12 -8 12 -10 1 -10 -8 0 -12 -2 -9
-5 8 -9 38 6 32 16 -3 5 -1 9 3 9 5 0 9 15 8 33 0 22 -4 31 -14 29 -8 -2 -18
3 -23 10 -7 10 -9 10 -5 -2z"/>
<path d="M1082 839 c-18 -27 -50 -62 -72 -77 -22 -15 -39 -30 -40 -34 0 -8 25
-12 44 -9 5 1 17 -6 27 -15 16 -14 19 -14 19 -3 0 8 -3 19 -8 25 -4 5 5 -3 20
-18 32 -34 42 -35 35 -7 -5 19 -3 19 23 -6 17 -16 32 -26 36 -23 8 8 -24 68
-36 68 -6 0 -10 5 -10 11 0 6 9 8 23 3 22 -7 22 -7 2 15 -16 19 -17 24 -5 31
12 8 12 10 -2 15 -11 4 -16 17 -16 36 1 16 -1 31 -3 33 -2 3 -19 -18 -37 -45z"/>
<path d="M500 865 c-14 -16 -3 -20 19 -6 8 5 9 11 3 15 -5 3 -15 -1 -22 -9z"/>
<path d="M626 852 c-5 -9 1 -72 7 -79 2 -2 17 13 33 34 15 21 21 32 13 26 -9
-7 -20 -9 -24 -5 -5 4 -5 2 -2 -4 4 -7 0 -15 -8 -18 -20 -7 -16 24 5 41 13 11
13 12 -2 13 -9 0 -19 -4 -22 -8z"/>
<path d="M500 830 c-30 -23 -14 -27 18 -5 37 27 15 -7 -23 -35 -38 -27 -43
-37 -20 -37 8 0 12 3 10 6 -2 4 8 11 21 18 14 6 26 7 30 2 3 -5 1 -9 -5 -9
-11 0 -81 -71 -81 -83 0 -4 14 -1 30 8 20 10 30 12 30 4 0 -7 9 -5 25 5 14 9
25 12 25 6 0 -8 6 -7 20 0 11 6 20 7 20 3 0 -4 5 -2 12 5 7 7 21 12 33 12 16
0 12 5 -15 21 -19 11 -48 38 -64 60 -17 21 -32 39 -35 39 -3 0 -17 -9 -31 -20z"/>
<path d="M716 835 c-3 -9 0 -15 9 -15 16 0 20 16 6 24 -5 3 -11 -1 -15 -9z"/>
<path d="M798 773 c12 -2 30 -2 40 0 9 3 -1 5 -23 4 -22 0 -30 -2 -17 -4z"/>
<path d="M701 696 c0 -11 3 -15 6 -8 2 6 9 12 14 12 6 0 8 -3 6 -7 -3 -5 -1
-17 4 -28 6 -16 8 -17 8 -3 2 31 18 28 19 -3 1 -37 10 -49 22 -29 8 12 10 11
10 -5 0 -11 4 -27 10 -35 7 -11 11 -8 21 15 6 17 13 24 16 17 9 -23 23 -1 24
36 0 32 1 34 9 15 12 -30 20 -29 20 3 0 23 -3 25 -22 19 -32 -10 -81 -14 -93
-6 -5 3 -25 11 -42 17 -31 11 -33 10 -32 -10z"/>
<path d="M913 712 c-7 -4 -9 -13 -4 -21 6 -9 10 -7 14 8 3 12 4 21 4 21 -1 0
-7 -4 -14 -8z"/>
  </g>
</svg>
